<svg width="200" height="200" viewBox="0 0 200 200" fill="none" xmlns="http://www.w3.org/2000/svg">
  <rect width="200" height="200" rx="20" fill="#F3F4F6"/>
  <path d="M120 70H80C74.4772 70 70 74.4772 70 80V120C70 125.523 74.4772 130 80 130H120C125.523 130 130 125.523 130 120V80C130 74.4772 125.523 70 120 70Z" stroke="#9CA3AF" stroke-width="8" stroke-linecap="round" stroke-linejoin="round"/>
  <path d="M90 95C92.7614 95 95 92.7614 95 90C95 87.2386 92.7614 85 90 85C87.2386 85 85 87.2386 85 90C85 92.7614 87.2386 95 90 95Z" fill="#9CA3AF"/>
  <path d="M130 115L115 100L85 130" stroke="#9CA3AF" stroke-width="8" stroke-linecap="round" stroke-linejoin="round"/>
</svg>
