<svg width="1280" height="800" viewBox="0 0 1280 800" fill="none" xmlns="http://www.w3.org/2000/svg">
<g opacity="0.41">
<mask id="mask0_11_1470" style="mask-type:alpha" maskUnits="userSpaceOnUse" x="0" y="0" width="1280" height="800">
<rect width="1280" height="800" fill="url(#paint0_radial_11_1470)" fill-opacity="0.53"/>
</mask>
<g mask="url(#mask0_11_1470)">
<g opacity="0.63">
<mask id="mask1_11_1470" style="mask-type:alpha" maskUnits="userSpaceOnUse" x="0" y="0" width="1280" height="800">
<rect width="1280" height="800" fill="#D9D9D9"/>
</mask>
<g mask="url(#mask1_11_1470)">
<g opacity="0.12">
<mask id="mask2_11_1470" style="mask-type:luminance" maskUnits="userSpaceOnUse" x="-71" y="0" width="1422" height="800">
<path d="M1351 0H-71V800H1351V0Z" fill="white"/>
</mask>
<g mask="url(#mask2_11_1470)">
<path d="M766 33.313L777.314 22L808 -8.687L838.687 22L796.687 64L808 75.313L850 33.313L880.687 64L850 94.687L838.687 106L850 117.313L880.687 148L850 178.687L838.687 190L808 220.687L796.687 232L766 262.687L724 220.687L712.687 232L754.687 274L766 285.313L777.314 274L808 243.313L838.687 274L796.687 316L808 327.313L850 285.313L861.314 274L892 243.313L903.314 232L934 201.313L945.314 190L934 178.687L903.314 148L892 136.687L861.314 106L892 75.313L903.314 64L892 52.687L861.314 22L850 10.687L819.314 -20L808 -31.313L796.687 -20L766 10.687L724 -31.313L712.687 -20L754.687 22L766 33.313ZM850 262.687L819.314 232L850 201.313L880.687 232L850 262.687ZM922.687 190L892 220.687L861.314 190L892 159.313L922.687 190Z" fill="url(#paint1_linear_11_1470)"/>
<path d="M1060 33.313L1071.31 22L1113.31 -20L1102 -31.313L1060 10.687L1018 -31.313L1006.69 -20L1048.69 22L1060 33.313Z" fill="url(#paint2_linear_11_1470)"/>
<path d="M1227.99 -31.304L1216.68 -19.9904L1269.99 33.3229L1281.3 22.0093L1227.99 -31.304Z" fill="url(#paint3_linear_11_1470)"/>
<path d="M82.6855 22L93.9995 33.313L124.686 64L136 75.313L147.313 64L178 33.313L189.313 22L231.313 -20L220 -31.313L178 10.687L147.313 -20L136 -31.313L124.686 -20L93.9995 10.687L82.6855 22ZM136 -8.687L166.686 22L136 52.687L105.313 22L136 -8.687Z" fill="url(#paint4_linear_11_1470)"/>
<path d="M292.686 64L304 75.313L346 33.313L376.686 64L388 75.313L399.313 64L430 33.313L460.686 64L472 75.313L514 117.313L525.314 106L472 52.687L441.313 22L430 10.687L399.313 -20L388 -31.313L376.686 -20L346 10.687L304 -31.313L292.686 -20L334.686 22L292.686 64ZM388 -8.687L418.686 22L388 52.687L357.313 22L388 -8.687Z" fill="url(#paint5_linear_11_1470)"/>
<path d="M670.687 64L682 75.313L724 33.313L754.687 64L766 75.313L796.687 106L754.687 148L766 159.313L808 117.313L838.687 148L808 178.687L796.687 190L766 220.687L735.314 190L724 178.687L682 136.687L670.687 148L712.687 190L682 220.687L670.687 232L628.687 274L640 285.313L682 243.313L712.687 274L670.687 316L682 327.313L724 285.313L754.687 316L766 327.313L796.687 358L808 369.313L819.314 358L850 327.313L880.687 358L838.687 400L850 411.313L892 369.313L922.687 400L934 411.313L964.687 442L934 472.687L922.687 484L880.687 526L892 537.313L934 495.313L976 537.313L987.314 526L945.314 484L976 453.313L987.314 442L1018 411.313L1048.69 442L1060 453.313L1071.31 442L1102 411.313L1132.69 442L1102 472.687L1090.69 484L1060 514.687L1048.69 526L1060 537.313L1102 579.313L1113.31 568L1071.31 526L1102 495.313L1113.31 484L1144 453.313L1155.31 442L1144 430.687L1113.31 400L1144 369.313L1186 411.313L1197.31 400L1155.31 358L1144 346.687L1113.31 316L1102 304.687L1071.31 274L1060 262.687L1048.69 274L1018 304.687L1006.69 316L976 346.687L964.687 358L934 388.687L903.314 358L934 327.313L945.314 316L976 285.313L987.314 274L976 262.687L945.314 232L976 201.313L1018 243.313L1029.31 232L987.314 190L976 178.687L945.314 148L934 136.687L903.314 106L934 75.313L945.314 64L976 33.313L1018 75.313L1029.31 64L987.314 22L976 10.687L964.687 22L934 52.687L903.314 22L892 10.687L850 -31.313L838.687 -20L880.687 22L892 33.313L922.687 64L892 94.687L880.687 106L892 117.313L922.687 148L934 159.313L964.687 190L934 220.687L922.687 232L892 262.687L880.687 274L850 304.687L838.687 316L808 346.687L777.314 316L819.314 274L808 262.687L766 304.687L735.314 274L724 262.687L693.314 232L724 201.313L754.687 232L766 243.313L777.314 232L808 201.313L819.314 190L850 159.313L861.314 148L850 136.687L819.314 106L861.314 64L850 52.687L808 94.687L777.314 64L819.314 22L808 10.687L766 52.687L735.314 22L724 10.687L682 -31.313L670.687 -20L712.687 22L670.687 64ZM1018 327.313L1060 369.313L1071.31 358L1029.31 316L1060 285.313L1090.69 316L1102 327.313L1132.69 358L1102 388.687L1090.69 400L1060 430.687L1029.31 400L1018 388.687L987.314 358L1018 327.313ZM976 369.313L1006.69 400L976 430.687L945.314 400L976 369.313ZM934 243.313L964.687 274L934 304.687L903.314 274L934 243.313ZM892 285.313L922.687 316L892 346.687L861.314 316L892 285.313Z" fill="url(#paint6_linear_11_1470)"/>
<path d="M1186 52.687L1144 10.687L1132.69 22L1174.69 64L1186 75.313L1216.69 106L1174.69 148L1186 159.313L1228 117.313L1239.31 106L1228 94.687L1197.31 64L1228 33.313L1258.69 64L1270 75.313L1281.31 64L1312 33.313L1323.31 22L1365.31 -20L1354 -31.313L1312 10.687L1270 -31.313L1258.69 -20L1300.69 22L1270 52.687L1239.31 22L1228 10.687L1186 -31.313L1174.69 -20L1216.69 22L1186 52.687Z" fill="url(#paint7_linear_11_1470)"/>
<path d="M1354 10.687L1312 52.687L1300.69 64L1270 94.687L1228 52.687L1216.69 64L1258.69 106L1228 136.687L1216.69 148L1186 178.687L1155.31 148L1186 117.313L1197.31 106L1186 94.687L1155.31 64L1144 52.687L1113.31 22L1144 -8.687L1186 33.313L1197.31 22L1155.31 -20L1144 -31.313L1132.69 -20L1102 10.687L1090.69 22L1060 52.687L1029.31 22L1018 10.687L987.314 -20L976 -31.313L964.687 -20L934 10.687L892 -31.313L880.687 -20L922.687 22L934 33.313L945.314 22L976 -8.687L1006.69 22L1018 33.313L1048.69 64L1018 94.687L987.314 64L976 52.687L964.687 64L934 94.687L922.687 106L934 117.313L964.687 148L976 159.313L1006.69 190L1018 201.313L1048.69 232L1018 262.687L976 220.687L964.687 232L1006.69 274L976 304.687L964.687 316L922.687 358L934 369.313L976 327.313L987.314 316L1018 285.313L1029.31 274L1060 243.313L1090.69 274L1102 285.313L1132.69 316L1144 327.313L1174.69 358L1186 369.313L1216.69 400L1186 430.687L1144 388.687L1132.69 400L1174.69 442L1144 472.687L1132.69 484L1102 514.687L1090.69 526L1102 537.313L1132.69 568L1102 598.687L1071.31 568L1060 556.687L1029.31 526L1060 495.313L1071.31 484L1113.31 442L1102 430.687L1060 472.687L1029.31 442L1018 430.687L1006.69 442L976 472.687L964.687 484L976 495.313L1006.69 526L976 556.687L945.314 526L934 514.687L922.687 526L892 556.687L861.314 526L892 495.313L903.314 484L934 453.313L945.314 442L934 430.687L903.314 400L892 388.687L880.687 400L850 430.687L819.314 400L861.314 358L850 346.687L808 388.687L777.314 358L766 346.687L735.314 316L724 304.687L712.687 316L682 346.687L651.314 316L693.314 274L682 262.687L640 304.687L609.314 274L640 243.313L651.314 232L682 201.313L693.314 190L682 178.687L651.314 148L682 117.313L712.687 148L724 159.313L754.687 190L766 201.313L777.314 190L819.314 148L808 136.687L766 178.687L735.314 148L766 117.313L777.314 106L766 94.687L735.314 64L724 52.687L712.687 64L682 94.687L651.314 64L682 33.313L693.314 22L682 10.687L640 -31.313L628.687 -20L670.687 22L640 52.687L609.314 22L598 10.687L586.687 22L556 52.687L544.687 64L556 75.313L586.687 106L556 136.687L502.686 190L514 201.313L556 159.313L598 117.313L609.314 106L598 94.687L567.314 64L598 33.313L628.687 64L640 75.313L670.687 106L640 136.687L628.687 148L640 159.313L670.687 190L640 220.687L609.314 190L598 178.687L586.687 190L544.687 232L556 243.313L598 201.313L628.687 232L598 262.687L586.687 274L598 285.313L628.687 316L640 327.313L670.687 358L682 369.313L712.687 400L682 430.687L670.687 442L640 472.687L628.687 484L598 514.687L586.687 526L598 537.313L628.687 568L640 579.313L670.687 610L682 621.313L693.314 610L724 579.313L735.314 568L724 556.687L693.314 526L735.314 484L724 472.687L682 514.687L670.687 526L682 537.313L712.687 568L682 598.687L651.314 568L640 556.687L609.314 526L640 495.313L651.314 484L682 453.313L693.314 442L724 411.313L735.314 400L724 388.687L693.314 358L724 327.313L754.687 358L766 369.313L796.687 400L766 430.687L754.687 442L766 453.313L796.687 484L754.687 526L766 537.313L808 495.313L819.314 484L850 453.313L880.687 484L850 514.687L838.687 526L850 537.313L880.687 568L850 598.687L808 556.687L796.687 568L838.687 610L850 621.313L861.314 610L892 579.313L922.687 610L892 640.687L880.687 652L838.687 694L850 705.313L892 663.313L922.687 694L880.687 736L892 747.313L934 705.313L964.687 736L976 747.313L1006.69 778L964.687 820L976 831.313L1018 789.313L1048.69 820L1060 831.313L1071.31 820L1102 789.313L1113.31 778L1144 747.313L1155.31 736L1186 705.313L1216.69 736L1174.69 778L1186 789.313L1228 747.313L1258.69 778L1270 789.313L1281.31 778L1312 747.313L1323.31 736L1312 724.687L1281.31 694L1270 682.687L1239.31 652L1228 640.687L1197.31 610L1239.31 568L1228 556.687L1186 598.687L1174.69 610L1186 621.313L1216.69 652L1186 682.687L1155.31 652L1144 640.687L1132.69 652L1102 682.687L1060 640.687L1048.69 652L1090.69 694L1060 724.687L1029.31 694L1018 682.687L1006.69 694L976 724.687L945.314 694L934 682.687L903.314 652L934 621.313L945.314 610L976 579.313L1006.69 610L964.687 652L976 663.313L1018 621.313L1029.31 610L1018 598.687L987.314 568L1018 537.313L1048.69 568L1060 579.313L1090.69 610L1102 621.313L1113.31 610L1144 579.313L1155.31 568L1186 537.313L1197.31 526L1186 514.687L1155.31 484L1186 453.313L1197.31 442L1228 411.313L1239.31 400L1270 369.313L1312 411.313L1323.31 400L1281.31 358L1270 346.687L1258.69 358L1228 388.687L1197.31 358L1186 346.687L1155.31 316L1144 304.687L1113.31 274L1102 262.687L1071.31 232L1060 220.687L1029.31 190L1018 178.687L987.314 148L976 136.687L945.314 106L976 75.313L1006.69 106L1018 117.313L1029.31 106L1060 75.313L1102 117.313L1113.31 106L1071.31 64L1102 33.313L1132.69 64L1144 75.313L1174.69 106L1144 136.687L1132.69 148L1144 159.313L1174.69 190L1186 201.313L1197.31 190L1228 159.313L1270 201.313L1281.31 190L1239.31 148L1270 117.313L1281.31 106L1312 75.313L1354 117.313L1365.31 106L1323.31 64L1365.31 22L1354 10.687ZM724 75.313L754.687 106L724 136.687L693.314 106L724 75.313ZM808 472.687L777.314 442L808 411.313L838.687 442L808 472.687ZM861.314 442L892 411.313L922.687 442L892 472.687L861.314 442ZM1300.69 736L1270 766.687L1239.31 736L1270 705.313L1300.69 736ZM1228 663.313L1258.69 694L1228 724.687L1197.31 694L1228 663.313ZM1018 705.313L1048.69 736L1060 747.313L1071.31 736L1102 705.313L1113.31 694L1144 663.313L1174.69 694L1144 724.687L1132.69 736L1102 766.687L1090.69 778L1060 808.687L1029.31 778L1018 766.687L987.314 736L1018 705.313ZM934 598.687L903.314 568L934 537.313L964.687 568L934 598.687ZM987.314 484L1018 453.313L1048.69 484L1018 514.687L987.314 484ZM1174.69 526L1144 556.687L1113.31 526L1144 495.313L1174.69 526Z" fill="url(#paint8_linear_11_1470)"/>
<path d="M1323.31 106L1312 94.687L1300.69 106L1270 136.687L1258.69 148L1270 159.313L1300.69 190L1270 220.687L1239.31 190L1228 178.687L1216.69 190L1186 220.687L1155.31 190L1144 178.687L1113.31 148L1144 117.313L1155.31 106L1144 94.687L1102 52.687L1090.69 64L1132.69 106L1102 136.687L1071.31 106L1060 94.687L1048.69 106L1018 136.687L976 94.687L964.687 106L1006.69 148L1018 159.313L1048.69 190L1060 201.313L1090.69 232L1102 243.313L1132.69 274L1144 285.313L1174.69 316L1186 327.313L1216.69 358L1228 369.313L1239.31 358L1270 327.313L1300.69 358L1312 369.313L1342.69 400L1312 430.687L1281.31 400L1270 388.687L1258.69 400L1228 430.687L1216.69 442L1186 472.687L1174.69 484L1186 495.313L1216.69 526L1186 556.687L1174.69 568L1144 598.687L1132.69 610L1102 640.687L1071.31 610L1060 598.687L1018 556.687L1006.69 568L1048.69 610L1018 640.687L1006.69 652L976 682.687L945.314 652L987.314 610L976 598.687L934 640.687L922.687 652L934 663.313L964.687 694L976 705.313L987.314 694L1018 663.313L1060 705.313L1071.31 694L1029.31 652L1060 621.313L1090.69 652L1102 663.313L1113.31 652L1144 621.313L1186 663.313L1197.31 652L1155.31 610L1186 579.313L1197.31 568L1228 537.313L1258.69 568L1228 598.687L1216.69 610L1228 621.313L1258.69 652L1270 663.313L1300.69 694L1312 705.313L1342.69 736L1312 766.687L1300.69 778L1270 808.687L1239.31 778L1228 766.687L1216.69 778L1186 808.687L1155.31 778L1197.31 736L1186 724.687L1144 766.687L1132.69 778L1090.69 820L1102 831.313L1144 789.313L1174.69 820L1186 831.313L1197.31 820L1228 789.313L1258.69 820L1270 831.313L1281.31 820L1312 789.313L1354 831.313L1365.31 820L1323.31 778L1354 747.313L1365.31 736L1354 724.687L1323.31 694L1354 663.313L1365.31 652L1354 640.687L1323.31 610L1354 579.313L1365.31 568L1354 556.687L1323.31 526L1365.31 484L1354 472.687L1312 514.687L1300.69 526L1312 537.313L1342.69 568L1312 598.687L1281.31 568L1270 556.687L1239.31 526L1228 514.687L1197.31 484L1228 453.313L1258.69 484L1270 495.313L1281.31 484L1312 453.313L1323.31 442L1354 411.313L1365.31 400L1354 388.687L1323.31 358L1365.31 316L1354 304.687L1312 346.687L1281.31 316L1270 304.687L1239.31 274L1228 262.687L1197.31 232L1228 201.313L1258.69 232L1270 243.313L1312 285.313L1323.31 274L1281.31 232L1312 201.313L1323.31 190L1354 159.313L1365.31 148L1354 136.687L1323.31 106ZM1300.69 610L1312 621.313L1342.69 652L1312 682.687L1281.31 652L1270 640.687L1239.31 610L1270 579.313L1300.69 610ZM1270 472.687L1239.31 442L1270 411.313L1300.69 442L1270 472.687ZM1071.31 190L1060 178.687L1029.31 148L1060 117.313L1090.69 148L1102 159.313L1132.69 190L1102 220.687L1071.31 190ZM1216.69 274L1228 285.313L1258.69 316L1228 346.687L1197.31 316L1186 304.687L1155.31 274L1144 262.687L1113.31 232L1144 201.313L1174.69 232L1186 243.313L1216.69 274ZM1312 178.687L1281.31 148L1312 117.313L1342.69 148L1312 178.687Z" fill="url(#paint9_linear_11_1470)"/>
<path d="M-85.3145 148L-74.0005 159.313L-43.3145 190L-32.0005 201.313L-1.31445 232L-43.3145 274L-32.0005 285.313L9.99955 243.313L21.3126 232L9.99955 220.687L-20.6875 190L-32.0005 178.687L-62.6875 148L-32.0005 117.313L-20.6875 106L21.3126 64L9.99955 52.687L-32.0005 94.687L-62.6875 64L-20.6875 22L-32.0005 10.687L-74.0005 52.687L-85.3145 64L-74.0005 75.313L-43.3145 106L-74.0005 136.687L-85.3145 148Z" fill="url(#paint10_linear_11_1470)"/>
<path d="M1059.99 136.694L1048.68 148.007L1101.99 201.321L1113.3 190.007L1059.99 136.694Z" fill="url(#paint11_linear_11_1470)"/>
<path d="M1354 178.687L1312 220.687L1300.69 232L1312 243.313L1342.69 274L1312 304.687L1281.31 274L1270 262.687L1228 220.687L1216.69 232L1258.69 274L1270 285.313L1300.69 316L1312 327.313L1323.31 316L1354 285.313L1365.31 274L1354 262.687L1323.31 232L1365.31 190L1354 178.687Z" fill="url(#paint12_linear_11_1470)"/>
<path d="M262 243.313L304 285.313L315.313 274L273.313 232L262 220.687L250.686 232L208.686 274L220 285.313L262 243.313Z" fill="url(#paint13_linear_11_1470)"/>
<path d="M472 220.687L430 262.687L388 220.687L376.686 232L418.686 274L430 285.313L441.313 274L483.313 232L472 220.687Z" fill="url(#paint14_linear_11_1470)"/>
<path d="M1132.69 232L1174.69 274L1186 285.313L1228 327.313L1239.31 316L1197.31 274L1186 262.687L1144 220.687L1132.69 232Z" fill="url(#paint15_linear_11_1470)"/>
<path d="M513.995 262.692L502.682 274.006L555.995 327.319L567.308 316.005L513.995 262.692Z" fill="url(#paint16_linear_11_1470)"/>
<path d="M597.993 346.689L586.68 358.003L639.993 411.316L651.307 400.002L597.993 346.689Z" fill="url(#paint17_linear_11_1470)"/>
<path d="M1060 411.313L1071.31 400L1102 369.313L1113.31 358L1102 346.687L1060 304.687L1048.69 316L1090.69 358L1060 388.687L1018 346.687L1006.69 358L1048.69 400L1060 411.313Z" fill="url(#paint18_linear_11_1470)"/>
<path d="M555.993 388.689L544.68 400.002L597.993 453.315L609.307 442.002L555.993 388.689Z" fill="url(#paint19_linear_11_1470)"/>
<path d="M-32.0004 495.313L-20.6874 484L9.99956 453.313L21.3126 442L51.9996 411.313L63.3126 400L105.313 358L93.9996 346.687L51.9996 388.687L40.6856 400L9.99956 430.687L-1.31444 442L-32.0004 472.687L-74.0005 430.687L-85.3145 442L-43.3144 484L-32.0004 495.313Z" fill="url(#paint20_linear_11_1470)"/>
<path d="M1312 472.687L1300.69 484L1270 514.687L1228 472.687L1216.69 484L1258.69 526L1270 537.313L1312 579.313L1323.31 568L1281.31 526L1312 495.313L1323.31 484L1365.31 442L1354 430.687L1312 472.687Z" fill="url(#paint21_linear_11_1470)"/>
<path d="M-32.0004 537.313L-20.6874 526L9.99956 495.313L21.3126 484L51.9996 453.313L63.3126 442L93.9996 411.313L105.313 400L136 369.313L147.313 358L136 346.687L105.313 316L147.313 274L136 262.687L93.9996 304.687L82.6856 316L51.9996 346.687L21.3126 316L51.9996 285.313L63.3126 274L93.9996 243.313L105.313 232L93.9996 220.687L63.3126 190L51.9996 178.687L21.3126 148L51.9996 117.313L82.6856 148L93.9996 159.313L136 201.313L147.313 190L105.313 148L93.9996 136.687L63.3126 106L51.9996 94.687L40.6856 106L9.99956 136.687L-1.31444 148L9.99956 159.313L40.6856 190L51.9996 201.313L82.6856 232L51.9996 262.687L40.6856 274L9.99956 304.687L-1.31444 316L-43.3144 358L-32.0004 369.313L9.99956 327.313L40.6856 358L9.99956 388.687L-1.31444 400L-32.0004 430.687L-74.0005 388.687L-85.3145 400L-43.3144 442L-32.0004 453.313L-20.6874 442L9.99956 411.313L21.3126 400L51.9996 369.313L63.3126 358L93.9996 327.313L124.686 358L93.9996 388.687L82.6856 400L51.9996 430.687L40.6856 442L9.99956 472.687L-1.31444 484L-32.0004 514.687L-74.0005 472.687L-85.3145 484L-43.3144 526L-32.0004 537.313Z" fill="url(#paint22_linear_11_1470)"/>
<path d="M178 537.313L189.313 526L231.313 484L220 472.687L178 514.687L136 472.687L124.686 484L166.686 526L178 537.313Z" fill="url(#paint23_linear_11_1470)"/>
<path d="M-32.0005 579.313L-20.6875 568L9.99955 537.313L21.3126 526L51.9995 495.313L93.9995 537.313L105.313 526L63.3125 484L93.9995 453.313L105.313 442L136 411.313L147.313 400L178 369.313L189.313 358L178 346.687L147.313 316L178 285.313L208.686 316L220 327.313L250.686 358L262 369.313L304 411.313L315.313 400L273.313 358L262 346.687L231.313 316L262 285.313L292.686 316L304 327.313L334.686 358L346 369.313L376.686 400L334.686 442L346 453.313L388 411.313L418.686 442L388 472.687L376.686 484L334.686 526L346 537.313L388 495.313L418.686 526L430 537.313L441.313 526L483.313 484L472 472.687L430 514.687L399.313 484L430 453.313L441.313 442L472 411.313L514 453.313L556 495.313L567.314 484L525.314 442L483.314 400L525.314 358L472 304.687L460.686 316L502.686 358L472 388.687L460.686 400L430 430.687L399.313 400L388 388.687L357.313 358L388 327.313L399.313 316L388 304.687L357.313 274L346 262.687L315.313 232L304 220.687L273.313 190L304 159.313L315.313 148L346 117.313L376.686 148L334.686 190L346 201.313L388 159.313L399.313 148L388 136.687L357.313 106L346 94.687L334.686 106L304 136.687L292.686 148L262 178.687L250.686 190L220 220.687L208.686 232L178 262.687L147.313 232L178 201.313L189.313 190L220 159.313L231.313 148L220 136.687L178 94.687L166.686 106L208.686 148L178 178.687L147.313 148L136 136.687L105.313 106L93.9995 94.687L63.3125 64L51.9995 52.687L21.3126 22L9.99955 10.687L-20.6875 -20L-32.0005 -31.313L-43.3145 -20L-85.3145 22L-74.0005 33.313L-32.0005 -8.687L-1.31445 22L-43.3145 64L-32.0005 75.313L9.99955 33.313L40.6855 64L9.99955 94.687L-1.31445 106L-32.0005 136.687L-43.3145 148L-32.0005 159.313L-1.31445 190L9.99955 201.313L40.6855 232L9.99955 262.687L-1.31445 274L-32.0005 304.687L-62.6875 274L-32.0005 243.313L-20.6875 232L-32.0005 220.687L-74.0005 178.687L-85.3145 190L-43.3145 232L-74.0005 262.687L-85.3145 274L-74.0005 285.313L-43.3145 316L-74.0005 346.687L-85.3145 358L-74.0005 369.313L-43.3145 400L-32.0005 411.313L-20.6875 400L21.3126 358L9.99955 346.687L-32.0005 388.687L-62.6875 358L-32.0005 327.313L-20.6875 316L9.99955 285.313L21.3126 274L51.9995 243.313L63.3125 232L51.9995 220.687L21.3126 190L9.99955 178.687L-20.6875 148L9.99955 117.313L21.3126 106L51.9995 75.313L82.6855 106L93.9995 117.313L124.686 148L136 159.313L166.686 190L136 220.687L105.313 190L93.9995 178.687L51.9995 136.687L40.6855 148L82.6855 190L93.9995 201.313L124.686 232L93.9995 262.687L82.6855 274L40.6855 316L51.9995 327.313L93.9995 285.313L105.313 274L136 243.313L166.686 274L136 304.687L124.686 316L136 327.313L166.686 358L136 388.687L124.686 400L93.9995 430.687L82.6855 442L51.9995 472.687L40.6855 484L9.99955 514.687L-1.31445 526L-32.0005 556.687L-74.0005 514.687L-85.3145 526L-43.3145 568L-32.0005 579.313ZM376.686 316L346 346.687L315.313 316L346 285.313L376.686 316ZM220 243.313L231.313 232L262 201.313L292.686 232L304 243.313L334.686 274L304 304.687L273.313 274L262 262.687L250.686 274L220 304.687L189.313 274L220 243.313Z" fill="url(#paint24_linear_11_1470)"/>
<path d="M261.993 514.685L208.68 567.998L219.994 579.312L273.307 525.999L261.993 514.685Z" fill="url(#paint25_linear_11_1470)"/>
<path d="M513.993 514.691L502.679 526.005L555.992 579.318L567.306 568.004L513.993 514.691Z" fill="url(#paint26_linear_11_1470)"/>
<path d="M51.9952 556.684L40.6816 567.997L93.9948 621.311L105.308 609.997L51.9952 556.684Z" fill="url(#paint27_linear_11_1470)"/>
<path d="M471.992 556.69L460.679 568.004L513.992 621.317L525.306 610.004L471.992 556.69Z" fill="url(#paint28_linear_11_1470)"/>
<path d="M-32.0005 663.313L-20.6875 652L9.99955 621.313L40.6855 652L9.99955 682.687L-1.31445 694L9.99955 705.313L51.9995 747.313L63.3125 736L21.3126 694L51.9995 663.313L63.3125 652L51.9995 640.687L21.3126 610L9.99955 598.687L-1.31445 610L-32.0005 640.687L-74.0005 598.687L-85.3145 610L-43.3145 652L-32.0005 663.313Z" fill="url(#paint29_linear_11_1470)"/>
<path d="M1269.99 598.692L1258.67 610.006L1311.99 663.319L1323.3 652.005L1269.99 598.692Z" fill="url(#paint30_linear_11_1470)"/>
<path d="M819.314 652L808 640.687L777.314 610L766 598.687L754.687 610L724 640.687L712.687 652L724 663.313L754.687 694L766 705.313L777.314 694L808 663.313L819.314 652ZM766 682.687L735.314 652L766 621.313L796.687 652L766 682.687Z" fill="url(#paint31_linear_11_1470)"/>
<path d="M682 705.313L693.314 694L682 682.687L651.314 652L640 640.687L609.314 610L598 598.687L586.687 610L556 640.687L544.687 652L556 663.313L586.687 694L556 724.687L525.314 694L472 640.687L460.686 652L502.686 694L460.686 736L472 747.313L514 705.314L556 747.313L567.314 736L598 705.313L609.314 694L598 682.687L567.314 652L598 621.313L628.687 652L640 663.313L670.687 694L640 724.687L628.687 736L640 747.313L682 789.313L693.314 778L651.314 736L682 705.313Z" fill="url(#paint32_linear_11_1470)"/>
<path d="M1060 789.313L1071.31 778L1102 747.313L1113.31 736L1155.31 694L1144 682.687L1102 724.687L1090.69 736L1060 766.687L1018 724.687L1006.69 736L1048.69 778L1060 789.313Z" fill="url(#paint33_linear_11_1470)"/>
<path d="M9.99339 766.682L-43.3198 819.995L-32.0062 831.309L21.307 777.995L9.99339 766.682Z" fill="url(#paint34_linear_11_1470)"/>
<path d="M388 766.687L346 808.687L315.313 778L357.313 736L346 724.687L304 766.687L273.313 736L262 724.687L231.313 694L262 663.313L304 705.313L315.313 694L273.313 652L262 640.687L250.686 652L220 682.687L208.686 694L220 705.313L250.686 736L262 747.313L292.686 778L262 808.687L231.313 778L220 766.687L208.686 778L178 808.687L136 766.687L124.686 778L166.686 820L178 831.313L189.313 820L220 789.313L250.686 820L262 831.313L273.313 820L304 789.313L334.686 820L346 831.313L357.313 820L399.313 778L388 766.687Z" fill="url(#paint35_linear_11_1470)"/>
<path d="M441.313 778L430 766.687L399.313 736L430 705.313L441.313 694L430 682.687L388 640.687L376.686 652L418.686 694L388 724.687L357.313 694L346 682.687L315.313 652L304 640.687L273.313 610L304 579.313L334.686 610L346 621.313L357.313 610L388 579.313L430 621.313L441.313 610L399.313 568L388 556.687L376.686 568L346 598.687L315.313 568L304 556.687L292.686 568L262 598.687L250.686 610L220 640.687L178 598.687L166.686 610L208.686 652L178 682.687L147.313 652L136 640.687L124.686 652L93.9995 682.687L82.6855 694L93.9995 705.313L124.686 736L93.9995 766.687L82.6855 778L93.9995 789.313L136 831.313L147.313 820L105.313 778L136 747.313L166.686 778L178 789.313L189.313 778L220 747.313L262 789.313L273.313 778L231.313 736L220 724.687L189.313 694L220 663.313L231.313 652L262 621.313L292.686 652L304 663.313L334.686 694L304 724.687L262 682.687L250.686 694L292.686 736L304 747.313L315.313 736L346 705.313L376.686 736L334.686 778L346 789.313L388 747.313L418.686 778L376.686 820L388 831.313L430 789.313L441.313 778ZM105.313 694L136 663.313L166.686 694L136 724.687L105.313 694ZM208.686 736L178 766.687L147.313 736L178 705.313L208.686 736Z" fill="url(#paint36_linear_11_1470)"/>
<path d="M513.99 766.69L502.677 778.004L555.99 831.317L567.304 820.003L513.99 766.69Z" fill="url(#paint37_linear_11_1470)"/>
<path d="M597.99 766.686L586.677 778L639.99 831.313L651.304 820L597.99 766.686Z" fill="url(#paint38_linear_11_1470)"/>
<path d="M861.314 778L850 766.687L819.314 736L808 724.687L796.687 736L766 766.687L754.687 778L766 789.313L796.687 820L808 831.313L819.314 820L850 789.313L861.314 778ZM808 808.687L777.314 778L808 747.313L838.687 778L808 808.687Z" fill="url(#paint39_linear_11_1470)"/>
<path d="M987.314 778L976 766.687L945.314 736L934 724.687L922.687 736L892 766.687L861.314 736L903.314 694L892 682.687L850 724.687L819.314 694L850 663.313L861.314 652L903.314 610L892 598.687L850 640.687L819.314 610L808 598.687L777.314 568L808 537.313L850 579.313L861.314 568L819.314 526L861.314 484L850 472.687L808 514.687L796.687 526L766 556.687L735.314 526L766 495.313L777.314 484L766 472.687L735.314 442L766 411.313L777.314 400L766 388.687L724 346.687L712.687 358L754.687 400L724 430.687L712.687 442L682 472.687L670.687 484L640 514.687L628.687 526L640 537.313L682 579.313L693.314 568L651.314 526L682 495.313L693.314 484L724 453.313L754.687 484L724 514.687L712.687 526L724 537.313L754.687 568L724 598.687L712.687 610L682 640.687L651.314 610L640 598.687L609.314 568L598 556.687L567.314 526L598 495.313L609.314 484L640 453.313L651.314 442L682 411.313L693.314 400L682 388.687L651.314 358L640 346.687L609.314 316L598 304.687L567.314 274L609.314 232L598 220.687L556 262.687L525.314 232L556 201.313L598 159.313L640 201.313L651.314 190L609.314 148L640 117.313L651.314 106L640 94.687L598 52.687L586.687 64L628.687 106L598 136.687L586.687 148L556 178.687L514 220.687L483.313 190L525.313 148L556 117.313L567.314 106L556 94.687L525.314 64L556 33.313L567.314 22L598 -8.687L640 33.313L651.314 22L609.314 -20L598 -31.313L586.687 -20L556 10.687L525.314 -20L514 -31.313L502.686 -20L472 10.687L430 -31.313L418.686 -20L460.686 22L472 33.313L502.686 64L514 75.313L544.687 106L514 136.686L472 94.686L441.313 64L430 52.687L418.686 64L388 94.687L357.313 64L346 52.687L334.686 64L304 94.687L273.313 64L304 33.313L315.313 22L304 10.687L273.313 -20L262 -31.313L250.686 -20L220 10.687L208.686 22L178 52.687L166.686 64L136 94.687L105.313 64L93.9996 52.687L63.3126 22L105.313 -20L93.9996 -31.313L51.9996 10.687L9.99956 -31.313L-1.31444 -20L40.6856 22L51.9996 33.313L82.6856 64L93.9996 75.313L124.686 106L136 117.313L178 159.313L189.313 148L147.313 106L178 75.313L208.686 106L220 117.313L250.686 148L220 178.687L208.686 190L166.686 232L178 243.313L220 201.313L231.313 190L262 159.313L273.313 148L304 117.313L315.313 106L346 75.313L376.686 106L388 117.313L418.686 148L388 178.687L376.686 190L346 220.687L315.313 190L357.313 148L346 136.687L304 178.687L292.686 190L304 201.313L334.686 232L346 243.313L376.686 274L388 285.313L418.686 316L388 346.687L376.686 358L388 369.313L418.686 400L430 411.313L441.313 400L472 369.313L483.313 358L472 346.687L441.313 316L472 285.313L514 327.313L544.687 358L514 388.687L502.686 400L514 411.313L556 453.313L586.687 484L556 514.687L525.314 484L472 430.687L460.686 442L418.686 484L430 495.313L472 453.313L502.686 484L472 514.687L460.686 526L430 556.687L399.313 526L388 514.687L376.686 526L346 556.687L315.313 526L346 495.313L357.313 484L399.313 442L388 430.687L346 472.687L315.313 442L346 411.313L357.313 400L346 388.687L315.313 358L304 346.687L262 304.687L250.686 316L292.686 358L304 369.313L334.686 400L304 430.687L273.313 400L262 388.687L231.313 358L220 346.687L178 304.687L166.686 316L208.686 358L178 388.687L166.686 400L136 430.687L124.686 442L93.9996 472.687L82.6856 484L93.9996 495.313L124.686 526L93.9996 556.687L63.3126 526L51.9996 514.687L40.6856 526L9.99956 556.687L-1.31444 568L-32.0004 598.687L-74.0005 556.687L-85.3145 568L-43.3144 610L-32.0004 621.313L-20.6874 610L9.99956 579.313L40.6856 610L51.9996 621.313L82.6856 652L51.9996 682.687L40.6856 694L51.9996 705.313L82.6856 736L51.9996 766.687L21.3126 736L9.99956 724.687L-20.6874 694L21.3126 652L9.99956 640.687L-32.0004 682.687L-74.0005 640.687L-85.3145 652L-43.3144 694L-32.0004 705.313L-1.31444 736L-32.0004 766.687L-74.0005 724.687L-85.3145 736L-43.3144 778L-85.3145 820L-74.0005 831.313L-32.0004 789.313L-20.6874 778L9.99956 747.313L40.6856 778L-1.31444 820L9.99956 831.313L51.9996 789.313L93.9996 831.313L105.313 820L63.3126 778L93.9996 747.313L105.313 736L93.9996 724.687L63.3126 694L93.9996 663.313L105.313 652L136 621.313L178 663.313L189.313 652L147.313 610L178 579.313L208.686 610L220 621.313L231.313 610L262 579.313L273.313 568L304 537.313L334.686 568L346 579.313L357.313 568L388 537.313L418.686 568L430 579.313L460.686 610L430 640.687L399.313 610L388 598.687L376.686 610L346 640.687L304 598.687L292.686 610L334.686 652L346 663.313L388 705.313L399.313 694L357.313 652L388 621.313L418.686 652L430 663.313L460.686 694L430 724.687L418.686 736L430 747.313L460.686 778L418.686 820L430 831.313L472 789.313L514 831.313L525.314 820L483.314 778L514 747.314L556 789.314L598 831.314L609.314 820L567.314 778L598 747.313L628.687 778L640 789.313L670.687 820L682 831.313L693.314 820L724 789.313L766 831.313L777.314 820L735.314 778L766 747.313L777.314 736L808 705.313L838.687 736L850 747.313L880.687 778L838.687 820L850 831.313L892 789.313L922.687 820L934 831.313L945.314 820L976 789.313L987.314 778ZM483.313 22L514 -8.686L544.687 22L514 52.686L483.313 22ZM262 -8.687L292.686 22L262 52.687L231.313 22L262 -8.687ZM189.313 64L220 33.313L250.686 64L220 94.687L189.313 64ZM262 136.687L231.313 106L262 75.313L292.686 106L262 136.687ZM628.687 358L640 369.313L670.687 400L640 430.687L609.314 400L598 388.687L567.314 358L598 327.313L628.687 358ZM472 178.687L441.313 148L472 117.313L502.686 148L472 178.687ZM399.313 106L430 75.313L460.686 106L430 136.687L399.313 106ZM430 159.313L460.686 190L430 220.687L399.313 190L430 159.313ZM460.686 358L430 388.687L399.313 358L430 327.313L460.686 358ZM460.686 274L430 304.687L399.313 274L388 262.687L357.313 232L388 201.313L418.686 232L430 243.313L441.313 232L472 201.313L502.686 232L472 262.687L460.686 274ZM525.314 316L483.314 274L514 243.314L556 285.314L586.687 316L556 346.687L525.314 316ZM556 430.687L525.313 400L556 369.313L586.687 400L598 411.313L628.687 442L598 472.687L556 430.687ZM334.686 484L304 514.687L273.313 484L304 453.313L334.686 484ZM292.686 442L262 472.687L231.313 442L262 411.313L292.686 442ZM220 369.313L250.686 400L220 430.687L189.313 400L220 369.313ZM178 411.313L208.686 442L178 472.687L147.313 442L178 411.313ZM105.313 484L136 453.313L166.686 484L178 495.313L189.313 484L220 453.313L250.686 484L220 514.687L208.686 526L178 556.687L147.313 526L136 514.687L105.313 484ZM93.9996 640.687L63.3126 610L51.9996 598.687L21.3126 568L51.9996 537.313L82.6856 568L93.9996 579.313L124.686 610L93.9996 640.687ZM136 598.687L105.313 568L136 537.313L166.686 568L136 598.687ZM262 556.687L250.686 568L220 598.687L189.313 568L220 537.313L231.313 526L262 495.313L292.686 526L262 556.687ZM514 495.314L556 537.314L586.687 568L556 598.687L525.314 568L483.314 526L514 495.314ZM441.313 568L472 537.313L514 579.313L544.687 610L514 640.686L472 598.686L441.313 568ZM682 808.687L651.314 778L640 766.687L609.314 736L640 705.313L651.314 694L640 682.687L598 640.687L586.687 652L628.687 694L598 724.687L586.687 736L556 766.687L525.314 736L514 724.687L502.686 736L472 766.687L441.313 736L472 705.313L483.313 694L472 682.687L441.313 652L472 621.313L502.686 652L514 663.313L556 705.313L567.314 694L525.314 652L556 621.313L567.314 610L598 579.313L628.687 610L640 621.313L670.687 652L682 663.313L712.687 694L682 724.687L670.687 736L682 747.313L712.687 778L682 808.687ZM724 766.687L693.314 736L724 705.313L754.687 736L724 766.687ZM796.687 694L766 724.687L735.314 694L724 682.687L693.314 652L724 621.313L735.314 610L766 579.313L796.687 610L808 621.313L838.687 652L808 682.687L796.687 694ZM934 808.687L903.314 778L934 747.313L964.687 778L934 808.687Z" fill="url(#paint40_linear_11_1470)"/>
</g>
</g>
</g>
</g>
</g>
</g>
<defs>
<radialGradient id="paint0_radial_11_1470" cx="0" cy="0" r="1" gradientUnits="userSpaceOnUse" gradientTransform="translate(640 400) rotate(90) scale(400 479.008)">
<stop stop-color="#D9D9D9" stop-opacity="0"/>
<stop offset="1" stop-color="#737373"/>
</radialGradient>
<linearGradient id="paint1_linear_11_1470" x1="829.001" y1="-31.313" x2="829.001" y2="327.313" gradientUnits="userSpaceOnUse">
<stop stop-color="#034920"/>
<stop offset="1" stop-color="#06AF4C"/>
</linearGradient>
<linearGradient id="paint2_linear_11_1470" x1="1060" y1="-31.313" x2="1060" y2="33.313" gradientUnits="userSpaceOnUse">
<stop stop-color="#034920"/>
<stop offset="1" stop-color="#06AF4C"/>
</linearGradient>
<linearGradient id="paint3_linear_11_1470" x1="1222.33" y1="-25.6472" x2="1275.65" y2="27.6661" gradientUnits="userSpaceOnUse">
<stop stop-color="#034920"/>
<stop offset="1" stop-color="#06AF4C"/>
</linearGradient>
<linearGradient id="paint4_linear_11_1470" x1="156.999" y1="-31.313" x2="156.999" y2="75.313" gradientUnits="userSpaceOnUse">
<stop stop-color="#034920"/>
<stop offset="1" stop-color="#06AF4C"/>
</linearGradient>
<linearGradient id="paint5_linear_11_1470" x1="409" y1="-31.313" x2="409" y2="117.313" gradientUnits="userSpaceOnUse">
<stop stop-color="#034920"/>
<stop offset="1" stop-color="#06AF4C"/>
</linearGradient>
<linearGradient id="paint6_linear_11_1470" x1="913" y1="-31.313" x2="913" y2="579.313" gradientUnits="userSpaceOnUse">
<stop stop-color="#034920"/>
<stop offset="1" stop-color="#06AF4C"/>
</linearGradient>
<linearGradient id="paint7_linear_11_1470" x1="1249" y1="-31.313" x2="1249" y2="159.313" gradientUnits="userSpaceOnUse">
<stop stop-color="#034920"/>
<stop offset="1" stop-color="#06AF4C"/>
</linearGradient>
<linearGradient id="paint8_linear_11_1470" x1="934" y1="-31.313" x2="934" y2="831.313" gradientUnits="userSpaceOnUse">
<stop stop-color="#034920"/>
<stop offset="1" stop-color="#06AF4C"/>
</linearGradient>
<linearGradient id="paint9_linear_11_1470" x1="1144" y1="52.687" x2="1144" y2="831.313" gradientUnits="userSpaceOnUse">
<stop stop-color="#034920"/>
<stop offset="1" stop-color="#06AF4C"/>
</linearGradient>
<linearGradient id="paint10_linear_11_1470" x1="-32.0009" y1="10.687" x2="-32.0009" y2="285.313" gradientUnits="userSpaceOnUse">
<stop stop-color="#034920"/>
<stop offset="1" stop-color="#06AF4C"/>
</linearGradient>
<linearGradient id="paint11_linear_11_1470" x1="1054.33" y1="142.351" x2="1107.65" y2="195.664" gradientUnits="userSpaceOnUse">
<stop stop-color="#034920"/>
<stop offset="1" stop-color="#06AF4C"/>
</linearGradient>
<linearGradient id="paint12_linear_11_1470" x1="1291" y1="178.687" x2="1291" y2="327.313" gradientUnits="userSpaceOnUse">
<stop stop-color="#034920"/>
<stop offset="1" stop-color="#06AF4C"/>
</linearGradient>
<linearGradient id="paint13_linear_11_1470" x1="261.999" y1="220.687" x2="261.999" y2="285.313" gradientUnits="userSpaceOnUse">
<stop stop-color="#034920"/>
<stop offset="1" stop-color="#06AF4C"/>
</linearGradient>
<linearGradient id="paint14_linear_11_1470" x1="430" y1="220.687" x2="430" y2="285.313" gradientUnits="userSpaceOnUse">
<stop stop-color="#034920"/>
<stop offset="1" stop-color="#06AF4C"/>
</linearGradient>
<linearGradient id="paint15_linear_11_1470" x1="1186" y1="220.687" x2="1186" y2="327.313" gradientUnits="userSpaceOnUse">
<stop stop-color="#034920"/>
<stop offset="1" stop-color="#06AF4C"/>
</linearGradient>
<linearGradient id="paint16_linear_11_1470" x1="508.338" y1="268.349" x2="561.652" y2="321.662" gradientUnits="userSpaceOnUse">
<stop stop-color="#034920"/>
<stop offset="1" stop-color="#06AF4C"/>
</linearGradient>
<linearGradient id="paint17_linear_11_1470" x1="592.336" y1="352.346" x2="645.65" y2="405.659" gradientUnits="userSpaceOnUse">
<stop stop-color="#034920"/>
<stop offset="1" stop-color="#06AF4C"/>
</linearGradient>
<linearGradient id="paint18_linear_11_1470" x1="1060" y1="304.687" x2="1060" y2="411.313" gradientUnits="userSpaceOnUse">
<stop stop-color="#034920"/>
<stop offset="1" stop-color="#06AF4C"/>
</linearGradient>
<linearGradient id="paint19_linear_11_1470" x1="550.336" y1="394.345" x2="603.65" y2="447.659" gradientUnits="userSpaceOnUse">
<stop stop-color="#034920"/>
<stop offset="1" stop-color="#06AF4C"/>
</linearGradient>
<linearGradient id="paint20_linear_11_1470" x1="9.99905" y1="346.687" x2="9.99905" y2="495.313" gradientUnits="userSpaceOnUse">
<stop stop-color="#034920"/>
<stop offset="1" stop-color="#06AF4C"/>
</linearGradient>
<linearGradient id="paint21_linear_11_1470" x1="1291" y1="430.687" x2="1291" y2="579.313" gradientUnits="userSpaceOnUse">
<stop stop-color="#034920"/>
<stop offset="1" stop-color="#06AF4C"/>
</linearGradient>
<linearGradient id="paint22_linear_11_1470" x1="30.9991" y1="94.687" x2="30.9991" y2="537.313" gradientUnits="userSpaceOnUse">
<stop stop-color="#034920"/>
<stop offset="1" stop-color="#06AF4C"/>
</linearGradient>
<linearGradient id="paint23_linear_11_1470" x1="177.999" y1="472.687" x2="177.999" y2="537.313" gradientUnits="userSpaceOnUse">
<stop stop-color="#034920"/>
<stop offset="1" stop-color="#06AF4C"/>
</linearGradient>
<linearGradient id="paint24_linear_11_1470" x1="241" y1="-31.313" x2="241" y2="579.313" gradientUnits="userSpaceOnUse">
<stop stop-color="#034920"/>
<stop offset="1" stop-color="#06AF4C"/>
</linearGradient>
<linearGradient id="paint25_linear_11_1470" x1="235.337" y1="541.342" x2="246.65" y2="552.655" gradientUnits="userSpaceOnUse">
<stop stop-color="#034920"/>
<stop offset="1" stop-color="#06AF4C"/>
</linearGradient>
<linearGradient id="paint26_linear_11_1470" x1="508.336" y1="520.348" x2="561.649" y2="573.661" gradientUnits="userSpaceOnUse">
<stop stop-color="#034920"/>
<stop offset="1" stop-color="#06AF4C"/>
</linearGradient>
<linearGradient id="paint27_linear_11_1470" x1="46.3384" y1="562.341" x2="99.6516" y2="615.654" gradientUnits="userSpaceOnUse">
<stop stop-color="#034920"/>
<stop offset="1" stop-color="#06AF4C"/>
</linearGradient>
<linearGradient id="paint28_linear_11_1470" x1="466.336" y1="562.347" x2="519.649" y2="615.66" gradientUnits="userSpaceOnUse">
<stop stop-color="#034920"/>
<stop offset="1" stop-color="#06AF4C"/>
</linearGradient>
<linearGradient id="paint29_linear_11_1470" x1="-11.001" y1="598.687" x2="-11.001" y2="747.313" gradientUnits="userSpaceOnUse">
<stop stop-color="#034920"/>
<stop offset="1" stop-color="#06AF4C"/>
</linearGradient>
<linearGradient id="paint30_linear_11_1470" x1="1264.33" y1="604.349" x2="1317.64" y2="657.662" gradientUnits="userSpaceOnUse">
<stop stop-color="#034920"/>
<stop offset="1" stop-color="#06AF4C"/>
</linearGradient>
<linearGradient id="paint31_linear_11_1470" x1="766.001" y1="598.687" x2="766.001" y2="705.313" gradientUnits="userSpaceOnUse">
<stop stop-color="#034920"/>
<stop offset="1" stop-color="#06AF4C"/>
</linearGradient>
<linearGradient id="paint32_linear_11_1470" x1="577" y1="598.687" x2="577" y2="789.313" gradientUnits="userSpaceOnUse">
<stop stop-color="#034920"/>
<stop offset="1" stop-color="#06AF4C"/>
</linearGradient>
<linearGradient id="paint33_linear_11_1470" x1="1081" y1="682.687" x2="1081" y2="789.313" gradientUnits="userSpaceOnUse">
<stop stop-color="#034920"/>
<stop offset="1" stop-color="#06AF4C"/>
</linearGradient>
<linearGradient id="paint34_linear_11_1470" x1="-16.6632" y1="793.338" x2="-5.34962" y2="804.652" gradientUnits="userSpaceOnUse">
<stop stop-color="#034920"/>
<stop offset="1" stop-color="#06AF4C"/>
</linearGradient>
<linearGradient id="paint35_linear_11_1470" x1="261.999" y1="640.687" x2="261.999" y2="831.313" gradientUnits="userSpaceOnUse">
<stop stop-color="#034920"/>
<stop offset="1" stop-color="#06AF4C"/>
</linearGradient>
<linearGradient id="paint36_linear_11_1470" x1="261.999" y1="556.687" x2="261.999" y2="831.313" gradientUnits="userSpaceOnUse">
<stop stop-color="#034920"/>
<stop offset="1" stop-color="#06AF4C"/>
</linearGradient>
<linearGradient id="paint37_linear_11_1470" x1="508.334" y1="772.347" x2="561.647" y2="825.66" gradientUnits="userSpaceOnUse">
<stop stop-color="#034920"/>
<stop offset="1" stop-color="#06AF4C"/>
</linearGradient>
<linearGradient id="paint38_linear_11_1470" x1="592.334" y1="772.343" x2="645.647" y2="825.656" gradientUnits="userSpaceOnUse">
<stop stop-color="#034920"/>
<stop offset="1" stop-color="#06AF4C"/>
</linearGradient>
<linearGradient id="paint39_linear_11_1470" x1="808.001" y1="724.687" x2="808.001" y2="831.313" gradientUnits="userSpaceOnUse">
<stop stop-color="#034920"/>
<stop offset="1" stop-color="#06AF4C"/>
</linearGradient>
<linearGradient id="paint40_linear_11_1470" x1="451" y1="-31.313" x2="451" y2="831.314" gradientUnits="userSpaceOnUse">
<stop stop-color="#034920"/>
<stop offset="1" stop-color="#06AF4C"/>
</linearGradient>
</defs>
</svg>
