<svg width="20" height="24" viewBox="0 0 20 24" fill="none" xmlns="http://www.w3.org/2000/svg">
<path fill-rule="evenodd" clip-rule="evenodd" d="M0.836843 0.826998C2.55448e-07 1.65398 0 2.98501 0 5.64706V18.3529C0 21.015 2.55448e-07 22.346 0.836843 23.173C1.67367 24 3.02054 24 5.71429 24H14.2857C16.9794 24 18.3263 24 19.1631 23.173C20 22.346 20 21.015 20 18.3529V5.64706C20 2.98501 20 1.65398 19.1631 0.826998C18.3263 2.52443e-07 16.9794 0 14.2857 0H5.71429C3.02054 0 1.67367 2.52443e-07 0.836843 0.826998ZM5.71429 5.64706C4.92531 5.64706 4.28571 6.27913 4.28571 7.05882C4.28571 7.83851 4.92531 8.47059 5.71429 8.47059H14.2857C15.0747 8.47059 15.7143 7.83851 15.7143 7.05882C15.7143 6.27913 15.0747 5.64706 14.2857 5.64706H5.71429ZM5.71429 11.2941C4.92531 11.2941 4.28571 11.9262 4.28571 12.7059C4.28571 13.4856 4.92531 14.1176 5.71429 14.1176H14.2857C15.0747 14.1176 15.7143 13.4856 15.7143 12.7059C15.7143 11.9262 15.0747 11.2941 14.2857 11.2941H5.71429ZM5.71429 16.9412C4.92531 16.9412 4.28571 17.5732 4.28571 18.3529C4.28571 19.1327 4.92531 19.7647 5.71429 19.7647H11.4286C12.2176 19.7647 12.8571 19.1327 12.8571 18.3529C12.8571 17.5732 12.2176 16.9412 11.4286 16.9412H5.71429Z" fill="#20FF7D"/>
</svg>
