<svg width="2560" height="1600" viewBox="0 0 2560 1600" fill="none" xmlns="http://www.w3.org/2000/svg">
<mask id="mask0_8_1080" style="mask-type:alpha" maskUnits="userSpaceOnUse" x="0" y="0" width="2560" height="1600">
<rect width="2560" height="1600" fill="#D9D9D9"/>
</mask>
<g mask="url(#mask0_8_1080)">
<g opacity="0.12">
<mask id="mask1_8_1080" style="mask-type:luminance" maskUnits="userSpaceOnUse" x="-142" y="0" width="2844" height="1600">
<path d="M2702 0H-142V1600H2702V0Z" fill="white"/>
</mask>
<g mask="url(#mask1_8_1080)">
<path d="M1532 66.626L1554.63 44L1616 -17.374L1677.37 44L1593.37 128L1616 150.626L1700 66.626L1761.37 128L1700 189.374L1677.37 212L1700 234.626L1761.37 296L1700 357.374L1677.37 380L1616 441.374L1593.37 464L1532 525.374L1448 441.374L1425.37 464L1509.37 548L1532 570.626L1554.63 548L1616 486.626L1677.37 548L1593.37 632L1616 654.626L1700 570.626L1722.63 548L1784 486.626L1806.63 464L1868 402.626L1890.63 380L1868 357.374L1806.63 296L1784 273.374L1722.63 212L1784 150.626L1806.63 128L1784 105.374L1722.63 44L1700 21.374L1638.63 -40L1616 -62.626L1593.37 -40L1532 21.374L1448 -62.626L1425.37 -40L1509.37 44L1532 66.626ZM1700 525.374L1638.63 464L1700 402.626L1761.37 464L1700 525.374ZM1845.37 380L1784 441.374L1722.63 380L1784 318.626L1845.37 380Z" fill="#8F4A1A"/>
<path d="M2120 66.626L2142.63 44L2226.63 -40L2204 -62.626L2120 21.374L2036 -62.626L2013.37 -40L2097.37 44L2120 66.626Z" fill="#8F4A1A"/>
<path d="M2455.98 -62.6079L2433.36 -39.9807L2539.98 66.6457L2562.61 44.0185L2455.98 -62.6079Z" fill="#8F4A1A"/>
<path d="M165.372 44L188 66.626L249.372 128L272 150.626L294.626 128L356 66.626L378.626 44L462.626 -40L440 -62.626L356 21.374L294.626 -40L272 -62.626L249.372 -40L188 21.374L165.372 44ZM272 -17.374L333.372 44L272 105.374L210.626 44L272 -17.374Z" fill="#8F4A1A"/>
<path d="M585.372 128L608 150.626L692 66.626L753.372 128L776 150.626L798.626 128L860 66.626L921.372 128L944 150.626L1028 234.626L1050.63 212L944 105.374L882.626 44L860 21.374L798.626 -40L776 -62.626L753.372 -40L692 21.374L608 -62.626L585.372 -40L669.372 44L585.372 128ZM776 -17.374L837.372 44L776 105.374L714.626 44L776 -17.374Z" fill="#8F4A1A"/>
<path d="M1341.37 128L1364 150.626L1448 66.626L1509.37 128L1532 150.626L1593.37 212L1509.37 296L1532 318.626L1616 234.626L1677.37 296L1616 357.374L1593.37 380L1532 441.374L1470.63 380L1448 357.374L1364 273.374L1341.37 296L1425.37 380L1364 441.374L1341.37 464L1257.37 548L1280 570.626L1364 486.626L1425.37 548L1341.37 632L1364 654.626L1448 570.626L1509.37 632L1532 654.626L1593.37 716L1616 738.626L1638.63 716L1700 654.626L1761.37 716L1677.37 800L1700 822.626L1784 738.626L1845.37 800L1868 822.626L1929.37 884L1868 945.374L1845.37 968L1761.37 1052L1784 1074.63L1868 990.626L1952 1074.63L1974.63 1052L1890.63 968L1952 906.626L1974.63 884L2036 822.626L2097.37 884L2120 906.626L2142.63 884L2204 822.626L2265.37 884L2204 945.374L2181.37 968L2120 1029.37L2097.37 1052L2120 1074.63L2204 1158.63L2226.63 1136L2142.63 1052L2204 990.626L2226.63 968L2288 906.626L2310.63 884L2288 861.374L2226.63 800L2288 738.626L2372 822.626L2394.63 800L2310.63 716L2288 693.374L2226.63 632L2204 609.374L2142.63 548L2120 525.374L2097.37 548L2036 609.374L2013.37 632L1952 693.374L1929.37 716L1868 777.374L1806.63 716L1868 654.626L1890.63 632L1952 570.626L1974.63 548L1952 525.374L1890.63 464L1952 402.626L2036 486.626L2058.63 464L1974.63 380L1952 357.374L1890.63 296L1868 273.374L1806.63 212L1868 150.626L1890.63 128L1952 66.626L2036 150.626L2058.63 128L1974.63 44L1952 21.374L1929.37 44L1868 105.374L1806.63 44L1784 21.374L1700 -62.626L1677.37 -40L1761.37 44L1784 66.626L1845.37 128L1784 189.374L1761.37 212L1784 234.626L1845.37 296L1868 318.626L1929.37 380L1868 441.374L1845.37 464L1784 525.374L1761.37 548L1700 609.374L1677.37 632L1616 693.374L1554.63 632L1638.63 548L1616 525.374L1532 609.374L1470.63 548L1448 525.374L1386.63 464L1448 402.626L1509.37 464L1532 486.626L1554.63 464L1616 402.626L1638.63 380L1700 318.626L1722.63 296L1700 273.374L1638.63 212L1722.63 128L1700 105.374L1616 189.374L1554.63 128L1638.63 44L1616 21.374L1532 105.374L1470.63 44L1448 21.374L1364 -62.626L1341.37 -40L1425.37 44L1341.37 128ZM2036 654.626L2120 738.626L2142.63 716L2058.63 632L2120 570.626L2181.37 632L2204 654.626L2265.37 716L2204 777.374L2181.37 800L2120 861.374L2058.63 800L2036 777.374L1974.63 716L2036 654.626ZM1952 738.626L2013.37 800L1952 861.374L1890.63 800L1952 738.626ZM1868 486.626L1929.37 548L1868 609.374L1806.63 548L1868 486.626ZM1784 570.626L1845.37 632L1784 693.374L1722.63 632L1784 570.626Z" fill="#8F4A1A"/>
<path d="M2372 105.374L2288 21.374L2265.37 44L2349.37 128L2372 150.626L2433.37 212L2349.37 296L2372 318.626L2456 234.626L2478.63 212L2456 189.374L2394.63 128L2456 66.626L2517.37 128L2540 150.626L2562.63 128L2624 66.626L2646.63 44L2730.63 -40L2708 -62.626L2624 21.374L2540 -62.626L2517.37 -40L2601.37 44L2540 105.374L2478.63 44L2456 21.374L2372 -62.626L2349.37 -40L2433.37 44L2372 105.374Z" fill="#8F4A1A"/>
<path d="M2708 21.374L2624 105.374L2601.37 128L2540 189.374L2456 105.374L2433.37 128L2517.37 212L2456 273.374L2433.37 296L2372 357.374L2310.63 296L2372 234.626L2394.63 212L2372 189.374L2310.63 128L2288 105.374L2226.63 44L2288 -17.374L2372 66.626L2394.63 44L2310.63 -40L2288 -62.626L2265.37 -40L2204 21.374L2181.37 44L2120 105.374L2058.63 44L2036 21.374L1974.63 -40L1952 -62.626L1929.37 -40L1868 21.374L1784 -62.626L1761.37 -40L1845.37 44L1868 66.626L1890.63 44L1952 -17.374L2013.37 44L2036 66.626L2097.37 128L2036 189.374L1974.63 128L1952 105.374L1929.37 128L1868 189.374L1845.37 212L1868 234.626L1929.37 296L1952 318.626L2013.37 380L2036 402.626L2097.37 464L2036 525.374L1952 441.374L1929.37 464L2013.37 548L1952 609.374L1929.37 632L1845.37 716L1868 738.626L1952 654.626L1974.63 632L2036 570.626L2058.63 548L2120 486.626L2181.37 548L2204 570.626L2265.37 632L2288 654.626L2349.37 716L2372 738.626L2433.37 800L2372 861.374L2288 777.374L2265.37 800L2349.37 884L2288 945.374L2265.37 968L2204 1029.37L2181.37 1052L2204 1074.63L2265.37 1136L2204 1197.37L2142.63 1136L2120 1113.37L2058.63 1052L2120 990.626L2142.63 968L2226.63 884L2204 861.374L2120 945.374L2058.63 884L2036 861.374L2013.37 884L1952 945.374L1929.37 968L1952 990.626L2013.37 1052L1952 1113.37L1890.63 1052L1868 1029.37L1845.37 1052L1784 1113.37L1722.63 1052L1784 990.626L1806.63 968L1868 906.626L1890.63 884L1868 861.374L1806.63 800L1784 777.374L1761.37 800L1700 861.374L1638.63 800L1722.63 716L1700 693.374L1616 777.374L1554.63 716L1532 693.374L1470.63 632L1448 609.374L1425.37 632L1364 693.374L1302.63 632L1386.63 548L1364 525.374L1280 609.374L1218.63 548L1280 486.626L1302.63 464L1364 402.626L1386.63 380L1364 357.374L1302.63 296L1364 234.626L1425.37 296L1448 318.626L1509.37 380L1532 402.626L1554.63 380L1638.63 296L1616 273.374L1532 357.374L1470.63 296L1532 234.626L1554.63 212L1532 189.374L1470.63 128L1448 105.374L1425.37 128L1364 189.374L1302.63 128L1364 66.626L1386.63 44L1364 21.374L1280 -62.626L1257.37 -40L1341.37 44L1280 105.374L1218.63 44L1196 21.374L1173.37 44L1112 105.374L1089.37 128L1112 150.626L1173.37 212L1112 273.374L1005.37 380L1028 402.626L1112 318.626L1196 234.626L1218.63 212L1196 189.374L1134.63 128L1196 66.626L1257.37 128L1280 150.626L1341.37 212L1280 273.374L1257.37 296L1280 318.626L1341.37 380L1280 441.374L1218.63 380L1196 357.374L1173.37 380L1089.37 464L1112 486.626L1196 402.626L1257.37 464L1196 525.374L1173.37 548L1196 570.626L1257.37 632L1280 654.626L1341.37 716L1364 738.626L1425.37 800L1364 861.374L1341.37 884L1280 945.374L1257.37 968L1196 1029.37L1173.37 1052L1196 1074.63L1257.37 1136L1280 1158.63L1341.37 1220L1364 1242.63L1386.63 1220L1448 1158.63L1470.63 1136L1448 1113.37L1386.63 1052L1470.63 968L1448 945.374L1364 1029.37L1341.37 1052L1364 1074.63L1425.37 1136L1364 1197.37L1302.63 1136L1280 1113.37L1218.63 1052L1280 990.626L1302.63 968L1364 906.626L1386.63 884L1448 822.626L1470.63 800L1448 777.374L1386.63 716L1448 654.626L1509.37 716L1532 738.626L1593.37 800L1532 861.374L1509.37 884L1532 906.626L1593.37 968L1509.37 1052L1532 1074.63L1616 990.626L1638.63 968L1700 906.626L1761.37 968L1700 1029.37L1677.37 1052L1700 1074.63L1761.37 1136L1700 1197.37L1616 1113.37L1593.37 1136L1677.37 1220L1700 1242.63L1722.63 1220L1784 1158.63L1845.37 1220L1784 1281.37L1761.37 1304L1677.37 1388L1700 1410.63L1784 1326.63L1845.37 1388L1761.37 1472L1784 1494.63L1868 1410.63L1929.37 1472L1952 1494.63L2013.37 1556L1929.37 1640L1952 1662.63L2036 1578.63L2097.37 1640L2120 1662.63L2142.63 1640L2204 1578.63L2226.63 1556L2288 1494.63L2310.63 1472L2372 1410.63L2433.37 1472L2349.37 1556L2372 1578.63L2456 1494.63L2517.37 1556L2540 1578.63L2562.63 1556L2624 1494.63L2646.63 1472L2624 1449.37L2562.63 1388L2540 1365.37L2478.63 1304L2456 1281.37L2394.63 1220L2478.63 1136L2456 1113.37L2372 1197.37L2349.37 1220L2372 1242.63L2433.37 1304L2372 1365.37L2310.63 1304L2288 1281.37L2265.37 1304L2204 1365.37L2120 1281.37L2097.37 1304L2181.37 1388L2120 1449.37L2058.63 1388L2036 1365.37L2013.37 1388L1952 1449.37L1890.63 1388L1868 1365.37L1806.63 1304L1868 1242.63L1890.63 1220L1952 1158.63L2013.37 1220L1929.37 1304L1952 1326.63L2036 1242.63L2058.63 1220L2036 1197.37L1974.63 1136L2036 1074.63L2097.37 1136L2120 1158.63L2181.37 1220L2204 1242.63L2226.63 1220L2288 1158.63L2310.63 1136L2372 1074.63L2394.63 1052L2372 1029.37L2310.63 968L2372 906.626L2394.63 884L2456 822.626L2478.63 800L2540 738.626L2624 822.626L2646.63 800L2562.63 716L2540 693.374L2517.37 716L2456 777.374L2394.63 716L2372 693.374L2310.63 632L2288 609.374L2226.63 548L2204 525.374L2142.63 464L2120 441.374L2058.63 380L2036 357.374L1974.63 296L1952 273.374L1890.63 212L1952 150.626L2013.37 212L2036 234.626L2058.63 212L2120 150.626L2204 234.626L2226.63 212L2142.63 128L2204 66.626L2265.37 128L2288 150.626L2349.37 212L2288 273.374L2265.37 296L2288 318.626L2349.37 380L2372 402.626L2394.63 380L2456 318.626L2540 402.626L2562.63 380L2478.63 296L2540 234.626L2562.63 212L2624 150.626L2708 234.626L2730.63 212L2646.63 128L2730.63 44L2708 21.374ZM1448 150.626L1509.37 212L1448 273.374L1386.63 212L1448 150.626ZM1616 945.374L1554.63 884L1616 822.626L1677.37 884L1616 945.374ZM1722.63 884L1784 822.626L1845.37 884L1784 945.374L1722.63 884ZM2601.37 1472L2540 1533.37L2478.63 1472L2540 1410.63L2601.37 1472ZM2456 1326.63L2517.37 1388L2456 1449.37L2394.63 1388L2456 1326.63ZM2036 1410.63L2097.37 1472L2120 1494.63L2142.63 1472L2204 1410.63L2226.63 1388L2288 1326.63L2349.37 1388L2288 1449.37L2265.37 1472L2204 1533.37L2181.37 1556L2120 1617.37L2058.63 1556L2036 1533.37L1974.63 1472L2036 1410.63ZM1868 1197.37L1806.63 1136L1868 1074.63L1929.37 1136L1868 1197.37ZM1974.63 968L2036 906.626L2097.37 968L2036 1029.37L1974.63 968ZM2349.37 1052L2288 1113.37L2226.63 1052L2288 990.626L2349.37 1052Z" fill="#8F4A1A"/>
<path d="M2646.63 212L2624 189.374L2601.37 212L2540 273.374L2517.37 296L2540 318.626L2601.37 380L2540 441.374L2478.63 380L2456 357.374L2433.37 380L2372 441.374L2310.63 380L2288 357.374L2226.63 296L2288 234.626L2310.63 212L2288 189.374L2204 105.374L2181.37 128L2265.37 212L2204 273.374L2142.63 212L2120 189.374L2097.37 212L2036 273.374L1952 189.374L1929.37 212L2013.37 296L2036 318.626L2097.37 380L2120 402.626L2181.37 464L2204 486.626L2265.37 548L2288 570.626L2349.37 632L2372 654.626L2433.37 716L2456 738.626L2478.63 716L2540 654.626L2601.37 716L2624 738.626L2685.37 800L2624 861.374L2562.63 800L2540 777.374L2517.37 800L2456 861.374L2433.37 884L2372 945.374L2349.37 968L2372 990.626L2433.37 1052L2372 1113.37L2349.37 1136L2288 1197.37L2265.37 1220L2204 1281.37L2142.63 1220L2120 1197.37L2036 1113.37L2013.37 1136L2097.37 1220L2036 1281.37L2013.37 1304L1952 1365.37L1890.63 1304L1974.63 1220L1952 1197.37L1868 1281.37L1845.37 1304L1868 1326.63L1929.37 1388L1952 1410.63L1974.63 1388L2036 1326.63L2120 1410.63L2142.63 1388L2058.63 1304L2120 1242.63L2181.37 1304L2204 1326.63L2226.63 1304L2288 1242.63L2372 1326.63L2394.63 1304L2310.63 1220L2372 1158.63L2394.63 1136L2456 1074.63L2517.37 1136L2456 1197.37L2433.37 1220L2456 1242.63L2517.37 1304L2540 1326.63L2601.37 1388L2624 1410.63L2685.37 1472L2624 1533.37L2601.37 1556L2540 1617.37L2478.63 1556L2456 1533.37L2433.37 1556L2372 1617.37L2310.63 1556L2394.63 1472L2372 1449.37L2288 1533.37L2265.37 1556L2181.37 1640L2204 1662.63L2288 1578.63L2349.37 1640L2372 1662.63L2394.63 1640L2456 1578.63L2517.37 1640L2540 1662.63L2562.63 1640L2624 1578.63L2708 1662.63L2730.63 1640L2646.63 1556L2708 1494.63L2730.63 1472L2708 1449.37L2646.63 1388L2708 1326.63L2730.63 1304L2708 1281.37L2646.63 1220L2708 1158.63L2730.63 1136L2708 1113.37L2646.63 1052L2730.63 968L2708 945.374L2624 1029.37L2601.37 1052L2624 1074.63L2685.37 1136L2624 1197.37L2562.63 1136L2540 1113.37L2478.63 1052L2456 1029.37L2394.63 968L2456 906.626L2517.37 968L2540 990.626L2562.63 968L2624 906.626L2646.63 884L2708 822.626L2730.63 800L2708 777.374L2646.63 716L2730.63 632L2708 609.374L2624 693.374L2562.63 632L2540 609.374L2478.63 548L2456 525.374L2394.63 464L2456 402.626L2517.37 464L2540 486.626L2624 570.626L2646.63 548L2562.63 464L2624 402.626L2646.63 380L2708 318.626L2730.63 296L2708 273.374L2646.63 212ZM2601.37 1220L2624 1242.63L2685.37 1304L2624 1365.37L2562.63 1304L2540 1281.37L2478.63 1220L2540 1158.63L2601.37 1220ZM2540 945.374L2478.63 884L2540 822.626L2601.37 884L2540 945.374ZM2142.63 380L2120 357.374L2058.63 296L2120 234.626L2181.37 296L2204 318.626L2265.37 380L2204 441.374L2142.63 380ZM2433.37 548L2456 570.626L2517.37 632L2456 693.374L2394.63 632L2372 609.374L2310.63 548L2288 525.374L2226.63 464L2288 402.626L2349.37 464L2372 486.626L2433.37 548ZM2624 357.374L2562.63 296L2624 234.626L2685.37 296L2624 357.374Z" fill="#8F4A1A"/>
<path d="M-170.628 296L-148 318.626L-86.6282 380L-64.0002 402.626L-2.62817 464L-86.6282 548L-64.0002 570.626L19.9998 486.626L42.6258 464L19.9998 441.374L-41.3742 380L-64.0002 357.374L-125.374 296L-64.0002 234.626L-41.3742 212L42.6258 128L19.9998 105.374L-64.0002 189.374L-125.374 128L-41.3742 44L-64.0002 21.374L-148 105.374L-170.628 128L-148 150.626L-86.6282 212L-148 273.374L-170.628 296Z" fill="#8F4A1A"/>
<path d="M2119.98 273.387L2097.36 296.015L2203.98 402.641L2226.61 380.014L2119.98 273.387Z" fill="#8F4A1A"/>
<path d="M2708 357.374L2624 441.374L2601.37 464L2624 486.626L2685.37 548L2624 609.374L2562.63 548L2540 525.374L2456 441.374L2433.37 464L2517.37 548L2540 570.626L2601.37 632L2624 654.626L2646.63 632L2708 570.626L2730.63 548L2708 525.374L2646.63 464L2730.63 380L2708 357.374Z" fill="#8F4A1A"/>
<path d="M524 486.626L608 570.626L630.626 548L546.626 464L524 441.374L501.372 464L417.372 548L440 570.626L524 486.626Z" fill="#8F4A1A"/>
<path d="M944 441.374L860 525.374L776 441.374L753.372 464L837.372 548L860 570.626L882.626 548L966.626 464L944 441.374Z" fill="#8F4A1A"/>
<path d="M2265.37 464L2349.37 548L2372 570.626L2456 654.626L2478.63 632L2394.63 548L2372 525.374L2288 441.374L2265.37 464Z" fill="#8F4A1A"/>
<path d="M1027.99 525.384L1005.36 548.011L1111.99 654.638L1134.62 632.01L1027.99 525.384Z" fill="#8F4A1A"/>
<path d="M1195.99 693.379L1173.36 716.006L1279.99 822.632L1302.61 800.005L1195.99 693.379Z" fill="#8F4A1A"/>
<path d="M2120 822.626L2142.63 800L2204 738.626L2226.63 716L2204 693.374L2120 609.374L2097.37 632L2181.37 716L2120 777.374L2036 693.374L2013.37 716L2097.37 800L2120 822.626Z" fill="#8F4A1A"/>
<path d="M1111.99 777.377L1089.36 800.005L1195.99 906.631L1218.61 884.004L1111.99 777.377Z" fill="#8F4A1A"/>
<path d="M-64.0002 990.626L-41.3742 968L19.9999 906.626L42.6259 884L104 822.626L126.626 800L210.626 716L188 693.374L104 777.374L81.3719 800L19.9999 861.374L-2.62815 884L-64.0002 945.374L-148 861.374L-170.628 884L-86.6282 968L-64.0002 990.626Z" fill="#8F4A1A"/>
<path d="M2624 945.374L2601.37 968L2540 1029.37L2456 945.374L2433.37 968L2517.37 1052L2540 1074.63L2624 1158.63L2646.63 1136L2562.63 1052L2624 990.626L2646.63 968L2730.63 884L2708 861.374L2624 945.374Z" fill="#8F4A1A"/>
<path d="M-64.0002 1074.63L-41.3742 1052L19.9999 990.626L42.6259 968L104 906.626L126.626 884L188 822.626L210.626 800L272 738.626L294.626 716L272 693.374L210.626 632L294.626 548L272 525.374L188 609.374L165.372 632L104 693.374L42.6259 632L104 570.626L126.626 548L188 486.626L210.626 464L188 441.374L126.626 380L104 357.374L42.6259 296L104 234.626L165.372 296L188 318.626L272 402.626L294.626 380L210.626 296L188 273.374L126.626 212L104 189.374L81.3719 212L19.9999 273.374L-2.62815 296L19.9999 318.626L81.3719 380L104 402.626L165.372 464L104 525.374L81.3719 548L19.9999 609.374L-2.62815 632L-86.6282 716L-64.0002 738.626L19.9999 654.626L81.3719 716L19.9999 777.374L-2.62815 800L-64.0002 861.374L-148 777.374L-170.628 800L-86.6282 884L-64.0002 906.626L-41.3742 884L19.9999 822.626L42.6259 800L104 738.626L126.626 716L188 654.626L249.372 716L188 777.374L165.372 800L104 861.374L81.3719 884L19.9999 945.374L-2.62815 968L-64.0002 1029.37L-148 945.374L-170.628 968L-86.6282 1052L-64.0002 1074.63Z" fill="#8F4A1A"/>
<path d="M356 1074.63L378.626 1052L462.626 968L440 945.374L356 1029.37L272 945.374L249.372 968L333.372 1052L356 1074.63Z" fill="#8F4A1A"/>
<path d="M-64.0004 1158.63L-41.3744 1136L19.9996 1074.63L42.6256 1052L104 990.626L188 1074.63L210.626 1052L126.626 968L188 906.626L210.626 884L272 822.626L294.626 800L356 738.626L378.626 716L356 693.374L294.626 632L356 570.626L417.372 632L440 654.626L501.372 716L524 738.626L608 822.626L630.626 800L546.626 716L524 693.374L462.626 632L524 570.626L585.372 632L608 654.626L669.372 716L692 738.626L753.372 800L669.372 884L692 906.626L776 822.626L837.372 884L776 945.374L753.372 968L669.372 1052L692 1074.63L776 990.626L837.372 1052L860 1074.63L882.626 1052L966.626 968L944 945.374L860 1029.37L798.626 968L860 906.626L882.626 884L944 822.626L1028 906.626L1112 990.626L1134.63 968L1050.63 884L966.628 800L1050.63 716L944 609.374L921.372 632L1005.37 716L944 777.374L921.372 800L860 861.374L798.626 800L776 777.374L714.626 716L776 654.626L798.626 632L776 609.374L714.626 548L692 525.374L630.626 464L608 441.374L546.626 380L608 318.626L630.626 296L692 234.626L753.372 296L669.372 380L692 402.626L776 318.626L798.626 296L776 273.374L714.626 212L692 189.374L669.372 212L608 273.374L585.372 296L524 357.374L501.372 380L440 441.374L417.372 464L356 525.374L294.626 464L356 402.626L378.626 380L440 318.626L462.626 296L440 273.374L356 189.374L333.372 212L417.372 296L356 357.374L294.626 296L272 273.374L210.626 212L188 189.374L126.626 128L104 105.374L42.6256 44L19.9996 21.374L-41.3744 -40L-64.0004 -62.626L-86.6284 -40L-170.628 44L-148 66.626L-64.0004 -17.374L-2.62842 44L-86.6284 128L-64.0004 150.626L19.9996 66.626L81.3716 128L19.9996 189.374L-2.62842 212L-64.0004 273.374L-86.6284 296L-64.0004 318.626L-2.62842 380L19.9996 402.626L81.3716 464L19.9996 525.374L-2.62842 548L-64.0004 609.374L-125.374 548L-64.0004 486.626L-41.3744 464L-64.0004 441.374L-148 357.374L-170.628 380L-86.6284 464L-148 525.374L-170.628 548L-148 570.626L-86.6284 632L-148 693.374L-170.628 716L-148 738.626L-86.6284 800L-64.0004 822.626L-41.3744 800L42.6256 716L19.9996 693.374L-64.0004 777.374L-125.374 716L-64.0004 654.626L-41.3744 632L19.9996 570.626L42.6256 548L104 486.626L126.626 464L104 441.374L42.6256 380L19.9996 357.374L-41.3744 296L19.9996 234.626L42.6256 212L104 150.626L165.372 212L188 234.626L249.372 296L272 318.626L333.372 380L272 441.374L210.626 380L188 357.374L104 273.374L81.3716 296L165.372 380L188 402.626L249.372 464L188 525.374L165.372 548L81.3716 632L104 654.626L188 570.626L210.626 548L272 486.626L333.372 548L272 609.374L249.372 632L272 654.626L333.372 716L272 777.374L249.372 800L188 861.374L165.372 884L104 945.374L81.3716 968L19.9996 1029.37L-2.62842 1052L-64.0004 1113.37L-148 1029.37L-170.628 1052L-86.6284 1136L-64.0004 1158.63ZM753.372 632L692 693.374L630.626 632L692 570.626L753.372 632ZM440 486.626L462.626 464L524 402.626L585.372 464L608 486.626L669.372 548L608 609.374L546.626 548L524 525.374L501.372 548L440 609.374L378.626 548L440 486.626Z" fill="#8F4A1A"/>
<path d="M523.987 1029.37L417.361 1136L439.988 1158.62L546.614 1052L523.987 1029.37Z" fill="#8F4A1A"/>
<path d="M1027.99 1029.38L1005.36 1052.01L1111.98 1158.64L1134.61 1136.01L1027.99 1029.38Z" fill="#8F4A1A"/>
<path d="M103.991 1113.37L81.3635 1135.99L187.99 1242.62L210.617 1219.99L103.991 1113.37Z" fill="#8F4A1A"/>
<path d="M943.985 1113.38L921.358 1136.01L1027.98 1242.63L1050.61 1220.01L943.985 1113.38Z" fill="#8F4A1A"/>
<path d="M-64.0002 1326.63L-41.3742 1304L19.9998 1242.63L81.3718 1304L19.9998 1365.37L-2.62817 1388L19.9998 1410.63L104 1494.63L126.626 1472L42.6258 1388L104 1326.63L126.626 1304L104 1281.37L42.6258 1220L19.9998 1197.37L-2.62817 1220L-64.0002 1281.37L-148 1197.37L-170.628 1220L-86.6282 1304L-64.0002 1326.63Z" fill="#8F4A1A"/>
<path d="M2539.97 1197.38L2517.35 1220.01L2623.97 1326.64L2646.6 1304.01L2539.97 1197.38Z" fill="#8F4A1A"/>
<path d="M1638.63 1304L1616 1281.37L1554.63 1220L1532 1197.37L1509.37 1220L1448 1281.37L1425.37 1304L1448 1326.63L1509.37 1388L1532 1410.63L1554.63 1388L1616 1326.63L1638.63 1304ZM1532 1365.37L1470.63 1304L1532 1242.63L1593.37 1304L1532 1365.37Z" fill="#8F4A1A"/>
<path d="M1364 1410.63L1386.63 1388L1364 1365.37L1302.63 1304L1280 1281.37L1218.63 1220L1196 1197.37L1173.37 1220L1112 1281.37L1089.37 1304L1112 1326.63L1173.37 1388L1112 1449.37L1050.63 1388L944 1281.37L921.372 1304L1005.37 1388L921.372 1472L944 1494.63L1028 1410.63L1112 1494.63L1134.63 1472L1196 1410.63L1218.63 1388L1196 1365.37L1134.63 1304L1196 1242.63L1257.37 1304L1280 1326.63L1341.37 1388L1280 1449.37L1257.37 1472L1280 1494.63L1364 1578.63L1386.63 1556L1302.63 1472L1364 1410.63Z" fill="#8F4A1A"/>
<path d="M2120 1578.63L2142.63 1556L2204 1494.63L2226.63 1472L2310.63 1388L2288 1365.37L2204 1449.37L2181.37 1472L2120 1533.37L2036 1449.37L2013.37 1472L2097.37 1556L2120 1578.63Z" fill="#8F4A1A"/>
<path d="M19.9869 1533.36L-86.6395 1639.99L-64.0123 1662.62L42.6141 1555.99L19.9869 1533.36Z" fill="#8F4A1A"/>
<path d="M776 1533.37L692 1617.37L630.626 1556L714.626 1472L692 1449.37L608 1533.37L546.626 1472L524 1449.37L462.626 1388L524 1326.63L608 1410.63L630.626 1388L546.626 1304L524 1281.37L501.372 1304L440 1365.37L417.372 1388L440 1410.63L501.372 1472L524 1494.63L585.372 1556L524 1617.37L462.626 1556L440 1533.37L417.372 1556L356 1617.37L272 1533.37L249.372 1556L333.372 1640L356 1662.63L378.626 1640L440 1578.63L501.372 1640L524 1662.63L546.626 1640L608 1578.63L669.372 1640L692 1662.63L714.626 1640L798.626 1556L776 1533.37Z" fill="#8F4A1A"/>
<path d="M882.626 1556L860 1533.37L798.626 1472L860 1410.63L882.626 1388L860 1365.37L776 1281.37L753.372 1304L837.372 1388L776 1449.37L714.626 1388L692 1365.37L630.626 1304L608 1281.37L546.626 1220L608 1158.63L669.372 1220L692 1242.63L714.626 1220L776 1158.63L860 1242.63L882.626 1220L798.626 1136L776 1113.37L753.372 1136L692 1197.37L630.626 1136L608 1113.37L585.372 1136L524 1197.37L501.372 1220L440 1281.37L356 1197.37L333.372 1220L417.372 1304L356 1365.37L294.626 1304L272 1281.37L249.372 1304L188 1365.37L165.372 1388L188 1410.63L249.372 1472L188 1533.37L165.372 1556L188 1578.63L272 1662.63L294.626 1640L210.626 1556L272 1494.63L333.372 1556L356 1578.63L378.626 1556L440 1494.63L524 1578.63L546.626 1556L462.626 1472L440 1449.37L378.626 1388L440 1326.63L462.626 1304L524 1242.63L585.372 1304L608 1326.63L669.372 1388L608 1449.37L524 1365.37L501.372 1388L585.372 1472L608 1494.63L630.626 1472L692 1410.63L753.372 1472L669.372 1556L692 1578.63L776 1494.63L837.372 1556L753.372 1640L776 1662.63L860 1578.63L882.626 1556ZM210.626 1388L272 1326.63L333.372 1388L272 1449.37L210.626 1388ZM417.372 1472L356 1533.37L294.626 1472L356 1410.63L417.372 1472Z" fill="#8F4A1A"/>
<path d="M1027.98 1533.38L1005.35 1556.01L1111.98 1662.63L1134.61 1640.01L1027.98 1533.38Z" fill="#8F4A1A"/>
<path d="M1195.98 1533.37L1173.35 1556L1279.98 1662.63L1302.61 1640L1195.98 1533.37Z" fill="#8F4A1A"/>
<path d="M1722.63 1556L1700 1533.37L1638.63 1472L1616 1449.37L1593.37 1472L1532 1533.37L1509.37 1556L1532 1578.63L1593.37 1640L1616 1662.63L1638.63 1640L1700 1578.63L1722.63 1556ZM1616 1617.37L1554.63 1556L1616 1494.63L1677.37 1556L1616 1617.37Z" fill="#8F4A1A"/>
<path d="M1974.63 1556L1952 1533.37L1890.63 1472L1868 1449.37L1845.37 1472L1784 1533.37L1722.63 1472L1806.63 1388L1784 1365.37L1700 1449.37L1638.63 1388L1700 1326.63L1722.63 1304L1806.63 1220L1784 1197.37L1700 1281.37L1638.63 1220L1616 1197.37L1554.63 1136L1616 1074.63L1700 1158.63L1722.63 1136L1638.63 1052L1722.63 968L1700 945.374L1616 1029.37L1593.37 1052L1532 1113.37L1470.63 1052L1532 990.626L1554.63 968L1532 945.374L1470.63 884L1532 822.626L1554.63 800L1532 777.374L1448 693.374L1425.37 716L1509.37 800L1448 861.374L1425.37 884L1364 945.374L1341.37 968L1280 1029.37L1257.37 1052L1280 1074.63L1364 1158.63L1386.63 1136L1302.63 1052L1364 990.626L1386.63 968L1448 906.626L1509.37 968L1448 1029.37L1425.37 1052L1448 1074.63L1509.37 1136L1448 1197.37L1425.37 1220L1364 1281.37L1302.63 1220L1280 1197.37L1218.63 1136L1196 1113.37L1134.63 1052L1196 990.626L1218.63 968L1280 906.626L1302.63 884L1364 822.626L1386.63 800L1364 777.374L1302.63 716L1280 693.374L1218.63 632L1196 609.374L1134.63 548L1218.63 464L1196 441.374L1112 525.374L1050.63 464L1112 402.626L1196 318.626L1280 402.626L1302.63 380L1218.63 296L1280 234.626L1302.63 212L1280 189.374L1196 105.374L1173.37 128L1257.37 212L1196 273.374L1173.37 296L1112 357.374L1028 441.374L966.626 380L1050.63 296L1112 234.626L1134.63 212L1112 189.374L1050.63 128L1112 66.626L1134.63 44L1196 -17.374L1280 66.626L1302.63 44L1218.63 -40L1196 -62.626L1173.37 -40L1112 21.374L1050.63 -40L1028 -62.626L1005.37 -40L944 21.374L860 -62.626L837.372 -40L921.372 44L944 66.626L1005.37 128L1028 150.626L1089.37 212L1028 273.372L944 189.372L882.626 128L860 105.374L837.372 128L776 189.374L714.626 128L692 105.374L669.372 128L608 189.374L546.626 128L608 66.626L630.626 44L608 21.374L546.626 -40L524 -62.626L501.372 -40L440 21.374L417.372 44L356 105.374L333.372 128L272 189.374L210.626 128L188 105.374L126.626 44L210.626 -40L188 -62.626L104 21.374L19.9996 -62.626L-2.6284 -40L81.3716 44L104 66.626L165.372 128L188 150.626L249.372 212L272 234.626L356 318.626L378.626 296L294.626 212L356 150.626L417.372 212L440 234.626L501.372 296L440 357.374L417.372 380L333.372 464L356 486.626L440 402.626L462.626 380L524 318.626L546.626 296L608 234.626L630.626 212L692 150.626L753.372 212L776 234.626L837.372 296L776 357.374L753.372 380L692 441.374L630.626 380L714.626 296L692 273.374L608 357.374L585.372 380L608 402.626L669.372 464L692 486.626L753.372 548L776 570.626L837.372 632L776 693.374L753.372 716L776 738.626L837.372 800L860 822.626L882.626 800L944 738.626L966.626 716L944 693.374L882.626 632L944 570.626L1028 654.626L1089.37 716L1028 777.374L1005.37 800L1028 822.626L1112 906.626L1173.37 968L1112 1029.37L1050.63 968L944 861.374L921.372 884L837.372 968L860 990.626L944 906.626L1005.37 968L944 1029.37L921.372 1052L860 1113.37L798.626 1052L776 1029.37L753.372 1052L692 1113.37L630.626 1052L692 990.626L714.626 968L798.626 884L776 861.374L692 945.374L630.626 884L692 822.626L714.626 800L692 777.374L630.626 716L608 693.374L524 609.374L501.372 632L585.372 716L608 738.626L669.372 800L608 861.374L546.626 800L524 777.374L462.626 716L440 693.374L356 609.374L333.372 632L417.372 716L356 777.374L333.372 800L272 861.374L249.372 884L188 945.374L165.372 968L188 990.626L249.372 1052L188 1113.37L126.626 1052L104 1029.37L81.3716 1052L19.9996 1113.37L-2.6284 1136L-64.0004 1197.37L-148 1113.37L-170.628 1136L-86.6284 1220L-64.0004 1242.63L-41.3744 1220L19.9996 1158.63L81.3716 1220L104 1242.63L165.372 1304L104 1365.37L81.3716 1388L104 1410.63L165.372 1472L104 1533.37L42.6256 1472L19.9996 1449.37L-41.3744 1388L42.6256 1304L19.9996 1281.37L-64.0004 1365.37L-148 1281.37L-170.628 1304L-86.6284 1388L-64.0004 1410.63L-2.6284 1472L-64.0004 1533.37L-148 1449.37L-170.628 1472L-86.6284 1556L-170.628 1640L-148 1662.63L-64.0004 1578.63L-41.3744 1556L19.9996 1494.63L81.3716 1556L-2.6284 1640L19.9996 1662.63L104 1578.63L188 1662.63L210.626 1640L126.626 1556L188 1494.63L210.626 1472L188 1449.37L126.626 1388L188 1326.63L210.626 1304L272 1242.63L356 1326.63L378.626 1304L294.626 1220L356 1158.63L417.372 1220L440 1242.63L462.626 1220L524 1158.63L546.626 1136L608 1074.63L669.372 1136L692 1158.63L714.626 1136L776 1074.63L837.372 1136L860 1158.63L921.372 1220L860 1281.37L798.626 1220L776 1197.37L753.372 1220L692 1281.37L608 1197.37L585.372 1220L669.372 1304L692 1326.63L776 1410.63L798.626 1388L714.626 1304L776 1242.63L837.372 1304L860 1326.63L921.372 1388L860 1449.37L837.372 1472L860 1494.63L921.372 1556L837.372 1640L860 1662.63L944 1578.63L1028 1662.63L1050.63 1640L966.628 1556L1028 1494.63L1112 1578.63L1196 1662.63L1218.63 1640L1134.63 1556L1196 1494.63L1257.37 1556L1280 1578.63L1341.37 1640L1364 1662.63L1386.63 1640L1448 1578.63L1532 1662.63L1554.63 1640L1470.63 1556L1532 1494.63L1554.63 1472L1616 1410.63L1677.37 1472L1700 1494.63L1761.37 1556L1677.37 1640L1700 1662.63L1784 1578.63L1845.37 1640L1868 1662.63L1890.63 1640L1952 1578.63L1974.63 1556ZM966.626 44L1028 -17.372L1089.37 44L1028 105.372L966.626 44ZM524 -17.374L585.372 44L524 105.374L462.626 44L524 -17.374ZM378.626 128L440 66.626L501.372 128L440 189.374L378.626 128ZM524 273.374L462.626 212L524 150.626L585.372 212L524 273.374ZM1257.37 716L1280 738.626L1341.37 800L1280 861.374L1218.63 800L1196 777.374L1134.63 716L1196 654.626L1257.37 716ZM944 357.374L882.626 296L944 234.626L1005.37 296L944 357.374ZM798.626 212L860 150.626L921.372 212L860 273.374L798.626 212ZM860 318.626L921.372 380L860 441.374L798.626 380L860 318.626ZM921.372 716L860 777.374L798.626 716L860 654.626L921.372 716ZM921.372 548L860 609.374L798.626 548L776 525.374L714.626 464L776 402.626L837.372 464L860 486.626L882.626 464L944 402.626L1005.37 464L944 525.374L921.372 548ZM1050.63 632L966.628 548L1028 486.628L1112 570.628L1173.37 632L1112 693.374L1050.63 632ZM1112 861.374L1050.63 800L1112 738.626L1173.37 800L1196 822.626L1257.37 884L1196 945.374L1112 861.374ZM669.372 968L608 1029.37L546.626 968L608 906.626L669.372 968ZM585.372 884L524 945.374L462.626 884L524 822.626L585.372 884ZM440 738.626L501.372 800L440 861.374L378.626 800L440 738.626ZM356 822.626L417.372 884L356 945.374L294.626 884L356 822.626ZM210.626 968L272 906.626L333.372 968L356 990.626L378.626 968L440 906.626L501.372 968L440 1029.37L417.372 1052L356 1113.37L294.626 1052L272 1029.37L210.626 968ZM188 1281.37L126.626 1220L104 1197.37L42.6256 1136L104 1074.63L165.372 1136L188 1158.63L249.372 1220L188 1281.37ZM272 1197.37L210.626 1136L272 1074.63L333.372 1136L272 1197.37ZM524 1113.37L501.372 1136L440 1197.37L378.626 1136L440 1074.63L462.626 1052L524 990.626L585.372 1052L524 1113.37ZM1028 990.628L1112 1074.63L1173.37 1136L1112 1197.37L1050.63 1136L966.628 1052L1028 990.628ZM882.626 1136L944 1074.63L1028 1158.63L1089.37 1220L1028 1281.37L944 1197.37L882.626 1136ZM1364 1617.37L1302.63 1556L1280 1533.37L1218.63 1472L1280 1410.63L1302.63 1388L1280 1365.37L1196 1281.37L1173.37 1304L1257.37 1388L1196 1449.37L1173.37 1472L1112 1533.37L1050.63 1472L1028 1449.37L1005.37 1472L944 1533.37L882.626 1472L944 1410.63L966.626 1388L944 1365.37L882.626 1304L944 1242.63L1005.37 1304L1028 1326.63L1112 1410.63L1134.63 1388L1050.63 1304L1112 1242.63L1134.63 1220L1196 1158.63L1257.37 1220L1280 1242.63L1341.37 1304L1364 1326.63L1425.37 1388L1364 1449.37L1341.37 1472L1364 1494.63L1425.37 1556L1364 1617.37ZM1448 1533.37L1386.63 1472L1448 1410.63L1509.37 1472L1448 1533.37ZM1593.37 1388L1532 1449.37L1470.63 1388L1448 1365.37L1386.63 1304L1448 1242.63L1470.63 1220L1532 1158.63L1593.37 1220L1616 1242.63L1677.37 1304L1616 1365.37L1593.37 1388ZM1868 1617.37L1806.63 1556L1868 1494.63L1929.37 1556L1868 1617.37Z" fill="#5C2A0D"/>
</g>
</g>
</g>
</svg>
